HIERARCHY
ROOT hips
{
	OFFSET -0.003675 0.299928 -0.021708
	CHANNELS 6 Xposition Yposition Zposition Xrotation Yrotation Zrotation
	JOINT LowerBack
	{
		OFFSET 0.000919 0.177588 0.009275
		CHANNELS 3 Xrotation Yrotation Zrotation
		JOINT spine
		{
			OFFSET 0.000919 0.177588 0.009275
			CHANNELS 3 Xrotation Yrotation Zrotation
			JOINT chest
			{
				OFFSET 0.000456 0.100015 0.004638
				CHANNELS 3 Xrotation Yrotation Zrotation
				JOINT neck
				{
					OFFSET 0.000456 0.100015 0.004638
					CHANNELS 3 Xrotation Yrotation Zrotation
					JOINT head
					{
						OFFSET 0.000924 0.155147 0.009274
						CHANNELS 6 Xposition Yposition Zposition Xrotation Yrotation Zrotation
						End Site
						{
							OFFSET 0.000000 0.153400 0.000000
						}
					}
				}
				JOINT shoulder.L
				{
					OFFSET 0.019937 0.078966 0.057518
					CHANNELS 6 Xposition Yposition Zposition Yrotation Xrotation Zrotation
					JOINT upper_arm.L
					{
						OFFSET 0.177024 -0.020465 -0.095062
						CHANNELS 6 Xposition Yposition Zposition Xrotation Yrotation Zrotation
						JOINT forearm.L
						{
							OFFSET 0.247100 -0.135500 -0.061800
							CHANNELS 3 Xrotation Yrotation Zrotation
							JOINT hand.L
							{
								OFFSET 0.217000 -0.143000 0.039300
								CHANNELS 3 Xrotation Yrotation Zrotation
								JOINT palm.01.L
								{
									OFFSET 0.021770 -0.038291 0.012954
									CHANNELS 6 Xposition Yposition Zposition Yrotation Xrotation Zrotation
									JOINT f_index.01.L
									{
										OFFSET 0.053215 -0.044137 0.008236
										CHANNELS 3 Xrotation Yrotation Zrotation
										JOINT f_index.02.L
										{
											OFFSET 0.036108 -0.024723 -0.010656
											CHANNELS 3 Xrotation Yrotation Zrotation
											JOINT f_index.03.L
											{
												OFFSET 0.021342 -0.014948 -0.010846
												CHANNELS 3 Xrotation Yrotation Zrotation
												End Site
												{
													OFFSET 0.015600 -0.009860 -0.013421
												}
											}
										}
									}
									JOINT thumb.01.L
									{
										OFFSET -0.009090 -0.002348 -0.024223
										CHANNELS 6 Xposition Yposition Zposition Xrotation Yrotation Zrotation
										JOINT thumb.02.L
										{
											OFFSET 0.019713 -0.035076 -0.011120
											CHANNELS 3 Xrotation Yrotation Zrotation
											JOINT thumb.03.L
											{
												OFFSET 0.024877 -0.021748 -0.005176
												CHANNELS 3 Xrotation Yrotation Zrotation
												End Site
												{
													OFFSET 0.016125 -0.013029 -0.001569
												}
											}
										}
									}
								}
								JOINT palm.02.L
								{
									OFFSET 0.032823 -0.025104 0.012281
									CHANNELS 6 Xposition Yposition Zposition Yrotation Xrotation Zrotation
									JOINT f_middle.01.L
									{
										OFFSET 0.055723 -0.038469 0.008037
										CHANNELS 3 Xrotation Yrotation Zrotation
										JOINT f_middle.02.L
										{
											OFFSET 0.038167 -0.027473 -0.015582
											CHANNELS 3 Xrotation Yrotation Zrotation
											JOINT f_middle.03.L
											{
												OFFSET 0.021707 -0.016587 -0.017037
												CHANNELS 3 Xrotation Yrotation Zrotation
												End Site
												{
													OFFSET 0.014112 -0.010584 -0.014294
												}
											}
										}
									}
								}
								JOINT palm.03.L
								{
									OFFSET 0.039230 -0.011402 0.008390
									CHANNELS 6 Xposition Yposition Zposition Yrotation Xrotation Zrotation
									JOINT f_ring.01.L
									{
										OFFSET 0.061796 -0.031470 0.007910
										CHANNELS 3 Xrotation Yrotation Zrotation
										JOINT f_ring.02.L
										{
											OFFSET 0.033092 -0.023401 -0.019127
											CHANNELS 3 Xrotation Yrotation Zrotation
											JOINT f_ring.03.L
											{
												OFFSET 0.021392 -0.015362 -0.017824
												CHANNELS 3 Xrotation Yrotation Zrotation
												End Site
												{
													OFFSET 0.008670 -0.007297 -0.014686
												}
											}
										}
									}
								}
								JOINT palm.04.L
								{
									OFFSET 0.043417 0.002450 0.002889
									CHANNELS 6 Xposition Yposition Zposition Yrotation Xrotation Zrotation
									JOINT f_pinky.01.L
									{
										OFFSET 0.069986 -0.026156 0.003627
										CHANNELS 3 Xrotation Yrotation Zrotation
										JOINT f_pinky.02.L
										{
											OFFSET 0.018520 -0.012813 -0.016429
											CHANNELS 3 Xrotation Yrotation Zrotation
											JOINT f_pinky.03.L
											{
												OFFSET 0.013822 -0.009796 -0.014947
												CHANNELS 3 Xrotation Yrotation Zrotation
												End Site
												{
													OFFSET 0.007238 -0.006103 -0.011657
												}
											}
										}
									}
								}
							}
						}
					}
				}
				JOINT shoulder.R
				{
					OFFSET -0.016662 0.078957 0.057696
					CHANNELS 6 Xposition Yposition Zposition Yrotation Xrotation Zrotation
					JOINT upper_arm.R
					{
						OFFSET -0.176972 -0.020537 -0.095144
						CHANNELS 6 Xposition Yposition Zposition Xrotation Yrotation Zrotation
						JOINT forearm.R
						{
							OFFSET -0.247100 -0.135500 -0.061800
							CHANNELS 3 Xrotation Yrotation Zrotation
							JOINT hand.R
							{
								OFFSET -0.217000 -0.143000 0.039300
								CHANNELS 3 Xrotation Yrotation Zrotation
								JOINT palm.01.R
								{
									OFFSET -0.021773 -0.038278 0.012988
									CHANNELS 6 Xposition Yposition Zposition Yrotation Xrotation Zrotation
									JOINT f_index.01.R
									{
										OFFSET -0.053212 -0.044139 0.008249
										CHANNELS 3 Xrotation Yrotation Zrotation
										JOINT f_index.02.R
										{
											OFFSET -0.036049 -0.024835 -0.010634
											CHANNELS 3 Xrotation Yrotation Zrotation
											JOINT f_index.03.R
											{
												OFFSET -0.021371 -0.014881 -0.010866
												CHANNELS 3 Xrotation Yrotation Zrotation
												End Site
												{
													OFFSET -0.015584 -0.009883 -0.013422
												}
											}
										}
									}
									JOINT thumb.01.R
									{
										OFFSET 0.009113 -0.002381 -0.024211
										CHANNELS 6 Xposition Yposition Zposition Xrotation Yrotation Zrotation
										JOINT thumb.02.R
										{
											OFFSET -0.019694 -0.035097 -0.011088
											CHANNELS 3 Xrotation Yrotation Zrotation
											JOINT thumb.03.R
											{
												OFFSET -0.024867 -0.021762 -0.005168
												CHANNELS 3 Xrotation Yrotation Zrotation
												End Site
												{
													OFFSET -0.016120 -0.013036 -0.001565
												}
											}
										}
									}
								}
								JOINT palm.02.R
								{
									OFFSET -0.032828 -0.025095 0.012286
									CHANNELS 6 Xposition Yposition Zposition Yrotation Xrotation Zrotation
									JOINT f_middle.01.R
									{
										OFFSET -0.055721 -0.038472 0.008040
										CHANNELS 3 Xrotation Yrotation Zrotation
										JOINT f_middle.02.R
										{
											OFFSET -0.038101 -0.027593 -0.015557
											CHANNELS 3 Xrotation Yrotation Zrotation
											JOINT f_middle.03.R
											{
												OFFSET -0.021730 -0.016530 -0.017054
												CHANNELS 3 Xrotation Yrotation Zrotation
												End Site
												{
													OFFSET -0.014096 -0.010608 -0.014293
												}
											}
										}
									}
								}
								JOINT palm.03.R
								{
									OFFSET -0.039192 -0.011488 0.008390
									CHANNELS 6 Xposition Yposition Zposition Yrotation Xrotation Zrotation
									JOINT f_ring.01.R
									{
										OFFSET -0.061839 -0.031387 0.007876
										CHANNELS 3 Xrotation Yrotation Zrotation
										JOINT f_ring.02.R
										{
											OFFSET -0.033068 -0.023437 -0.019125
											CHANNELS 3 Xrotation Yrotation Zrotation
											JOINT f_ring.03.R
											{
												OFFSET -0.021371 -0.015393 -0.017822
												CHANNELS 3 Xrotation Yrotation Zrotation
												End Site
												{
													OFFSET -0.008654 -0.007321 -0.014684
												}
											}
										}
									}
								}
								JOINT palm.04.R
								{
									OFFSET -0.043421 0.002443 0.002845
									CHANNELS 6 Xposition Yposition Zposition Yrotation Xrotation Zrotation
									JOINT f_pinky.01.R
									{
										OFFSET -0.069983 -0.026169 0.003599
										CHANNELS 3 Xrotation Yrotation Zrotation
										JOINT f_pinky.02.R
										{
											OFFSET -0.018501 -0.012842 -0.016428
											CHANNELS 3 Xrotation Yrotation Zrotation
											JOINT f_pinky.03.R
											{
												OFFSET -0.013806 -0.009821 -0.014946
												CHANNELS 3 Xrotation Yrotation Zrotation
												End Site
												{
													OFFSET -0.007226 -0.006121 -0.011655
												}
											}
										}
									}
								}
							}
						}
					}
				}
			}
		}
	}
	JOINT pelvis.L
	{
		OFFSET 0.000000 0.000000 0.000000
		CHANNELS 6 Xposition Yposition Zposition Xrotation Yrotation Zrotation
		JOINT thigh.L
		{
			OFFSET 0.101675 0.001054 -0.000000
			CHANNELS 3 Xrotation Yrotation Zrotation
			JOINT shin.L
			{
				OFFSET 0.000000 -0.534800 0.041000
				CHANNELS 3 Xrotation Yrotation Zrotation
				JOINT foot.L
				{
					OFFSET 0.000000 -0.452000 -0.044800
					CHANNELS 3 Xrotation Yrotation Zrotation
					JOINT toe.L
					{
						OFFSET -0.000000 -0.068500 0.109600
						CHANNELS 3 Xrotation Yrotation Zrotation
						End Site
						{
							OFFSET -0.000000 0.000000 0.067200
						}
					}
				}
				JOINT heel.L
				{
					OFFSET 0.000000 -0.452000 -0.044800
					CHANNELS 3 Xrotation Yrotation Zrotation
					JOINT heel.02.L
					{
						OFFSET -0.038000 -0.085200 0.016200
						CHANNELS 6 Xposition Yposition Zposition Xrotation Yrotation Zrotation
						End Site
						{
							OFFSET 0.080000 -0.000000 0.000000
						}
					}
				}
			}
		}
	}
	JOINT pelvis.R
	{
		OFFSET 0.000000 0.000000 0.000000
		CHANNELS 6 Xposition Yposition Zposition Xrotation Yrotation Zrotation
		JOINT thigh.R
		{
			OFFSET -0.094325 0.001054 0.000000
			CHANNELS 3 Xrotation Yrotation Zrotation
			JOINT shin.R
			{
				OFFSET 0.000000 -0.534800 0.041000
				CHANNELS 3 Xrotation Yrotation Zrotation
				JOINT foot.R
				{
					OFFSET 0.000000 -0.452000 -0.044800
					CHANNELS 3 Xrotation Yrotation Zrotation
					JOINT toe.R
					{
						OFFSET -0.000000 -0.068500 0.109600
						CHANNELS 3 Xrotation Yrotation Zrotation
						End Site
						{
							OFFSET -0.000000 0.000000 0.067200
						}
					}
				}
				JOINT heel.R
				{
					OFFSET 0.000000 -0.452000 -0.044800
					CHANNELS 3 Xrotation Yrotation Zrotation
					JOINT heel.02.R
					{
						OFFSET 0.038000 -0.085200 0.016200
						CHANNELS 6 Xposition Yposition Zposition Xrotation Yrotation Zrotation
						End Site
						{
							OFFSET -0.080000 0.000000 -0.000000
						}
					}
				}
			}
		}
	}
}
MOTION
Frames: 4
Frame Time: 0.041667
-0.005500 0.216666 0.003642 6.887703 1.801794 86.130147 0.000000 -0.000001 0.000000 -0.000000 -0.000000 0.000000 0.000001 0.000000 -0.000001 0.000000 0.000000 0.000000 0.000924 0.155148 0.009274 -15.537521 0.033520 -22.137075 0.019937 0.078966 0.057518 -5.735754 6.526052 48.791262 0.177024 -0.020465 -0.095062 -30.001363 -22.598521 -9.715509 0.491659 8.043044 58.673217 -0.000004 0.000001 0.000001 0.021770 -0.038291 0.012954 -0.000001 0.000004 -0.000002 -0.000004 0.000001 0.000003 -0.000001 -0.000002 0.000006 -0.000004 0.000003 0.000000 -0.009090 -0.002348 -0.024224 -0.000003 -0.000001 0.000001 0.000002 0.000000 -0.000004 -0.000003 -0.000001 -0.000001 0.032823 -0.025104 0.012281 -0.000001 0.000004 -0.000001 -0.000000 0.000001 -0.000005 0.000003 -0.000004 -0.000000 -0.000006 0.000004 -0.000000 0.039230 -0.011402 0.008390 0.000000 -0.000001 0.000003 0.000003 0.000002 0.000001 -0.000002 0.000003 0.000004 0.000001 -0.000000 0.000003 0.043417 0.002450 0.002889 -0.000001 0.000001 -0.000003 -0.000006 -0.000003 0.000001 0.000002 -0.000001 0.000003 -0.000003 0.000000 -0.000001 -0.016662 0.078957 0.057696 -6.795510 5.682040 -38.436521 -0.176972 -0.020537 -0.095144 -27.789670 9.247359 20.096551 14.421108 15.348504 -71.186970 -0.000001 0.000001 0.000002 -0.021773 -0.038278 0.012988 -0.000001 -0.000002 -0.000003 0.000002 0.000001 -0.000001 -0.000000 0.000001 -0.000004 0.000000 0.000000 0.000003 0.009113 -0.002381 -0.024211 0.000003 0.000000 0.000001 -0.000001 -0.000001 0.000000 0.000002 0.000001 -0.000006 -0.032828 -0.025095 0.012286 0.000001 -0.000001 -0.000003 0.000000 0.000003 0.000002 0.000001 0.000003 -0.000000 0.000001 0.000003 -0.000004 -0.039192 -0.011488 0.008390 -0.000001 -0.000004 0.000001 0.000003 0.000003 -0.000005 0.000003 -0.000001 -0.000004 0.000003 0.000005 -0.000004 -0.043421 0.002443 0.002845 -0.000001 -0.000002 -0.000003 -0.000004 0.000002 -0.000001 -0.000004 -0.000006 -0.000002 0.000001 0.000003 -0.000001 -0.000000 0.000000 -0.000000 -1.801402 0.131053 -2.556645 45.149063 -0.134948 -3.890325 22.022620 0.131353 -1.323411 0.000000 -0.000001 -0.000000 -0.000001 0.000000 0.000000 -0.000002 0.000000 0.000001 -0.038000 -0.085200 0.016200 -0.000002 -0.000000 -0.000000 -0.000000 0.000000 -0.000000 -1.758473 0.129583 -1.322551 34.426230 0.162121 4.126093 34.949023 0.895382 -9.071615 0.000003 -0.000000 -0.000000 0.000003 0.000000 0.000000 0.000005 0.000000 0.000000 0.038000 -0.085200 0.016200 -0.000001 0.000000 0.000000 
-0.005690 0.216345 0.003609 5.805000 2.131056 85.826620 0.000000 0.000001 0.000000 0.000000 -0.000000 -0.000000 0.000000 -0.000000 -0.000000 0.000000 -0.000001 0.000000 0.000924 0.155148 0.009274 -16.335924 0.037433 -21.868736 0.019937 0.078966 0.057518 -6.385931 6.448873 49.064565 0.177024 -0.020465 -0.095062 -26.807938 -26.018030 -4.641260 -2.403884 14.539478 59.522326 -0.000001 -0.000001 -0.000000 0.021770 -0.038291 0.012954 0.000001 -0.000003 0.000001 -0.000003 -0.000001 -0.000000 -0.000002 -0.000000 0.000010 -0.000006 -0.000002 -0.000005 -0.009090 -0.002348 -0.024224 0.000001 -0.000003 0.000003 -0.000001 0.000003 0.000001 -0.000003 0.000000 0.000003 0.032823 -0.025104 0.012281 0.000000 -0.000002 0.000005 0.000000 0.000000 -0.000002 -0.000006 -0.000002 -0.000000 -0.000004 0.000001 0.000001 0.039230 -0.011402 0.008390 0.000001 -0.000003 0.000004 -0.000004 0.000004 -0.000000 0.000002 0.000005 0.000001 0.000002 -0.000001 -0.000001 0.043417 0.002450 0.002889 0.000000 -0.000003 -0.000002 -0.000001 -0.000003 -0.000000 0.000001 -0.000003 0.000002 0.000001 0.000000 -0.000001 -0.016662 0.078957 0.057696 -6.741233 5.613550 -38.634866 -0.176972 -0.020537 -0.095144 -27.501777 9.892263 19.119619 17.313131 15.679080 -75.727086 -0.000002 0.000001 0.000002 -0.021773 -0.038278 0.012988 -0.000003 -0.000001 -0.000003 0.000000 0.000006 -0.000004 0.000001 -0.000001 -0.000008 -0.000002 0.000002 0.000003 0.009114 -0.002381 -0.024211 0.000001 -0.000000 -0.000003 0.000001 -0.000003 -0.000001 -0.000001 0.000000 0.000001 -0.032828 -0.025095 0.012286 0.000001 0.000002 -0.000003 0.000000 -0.000002 0.000004 -0.000001 0.000002 -0.000001 0.000000 0.000003 -0.000004 -0.039192 -0.011488 0.008390 0.000000 -0.000000 -0.000000 -0.000001 0.000006 -0.000003 -0.000003 0.000003 -0.000001 -0.000003 0.000008 0.000001 -0.043421 0.002443 0.002844 0.000001 0.000000 0.000002 0.000002 0.000000 0.000003 -0.000001 -0.000003 0.000003 -0.000001 0.000001 0.000001 0.000000 0.000000 -0.000000 -1.820102 0.045688 -1.535129 45.275719 -0.095227 -3.382791 20.222800 0.143509 -1.446028 -0.000002 0.000000 0.000000 0.000000 -0.000001 -0.000001 -0.000002 -0.000002 -0.000001 -0.038000 -0.085200 0.016200 0.000002 0.000000 0.000000 0.000000 0.000000 0.000000 -1.779553 0.045023 -0.300980 33.764166 0.146203 3.881084 35.090435 0.794597 -8.043118 -0.000003 0.000000 -0.000000 0.000001 -0.000000 0.000000 0.000003 0.000000 0.000000 0.038000 -0.085200 0.016200 -0.000000 -0.000000 0.000000 
-0.006518 0.218680 0.003277 -2.892623 5.946235 88.185057 -0.000001 0.000000 -0.000000 -0.000001 -0.000000 -0.000000 -0.000000 -0.000000 0.000000 0.000000 0.000000 0.000000 0.000924 0.155148 0.009274 -18.256520 0.057378 -14.737419 0.019937 0.078966 0.057518 -11.467088 6.889690 52.057270 0.177024 -0.020465 -0.095062 -14.557338 -19.496032 5.259542 -1.633106 16.588339 48.722219 -0.000001 -0.000000 0.000003 0.021771 -0.038291 0.012954 0.000001 -0.000000 -0.000004 0.000002 -0.000003 -0.000001 0.000002 -0.000003 0.000007 -0.000003 0.000008 -0.000000 -0.009090 -0.002348 -0.024223 0.000000 -0.000001 -0.000003 -0.000002 -0.000002 0.000003 0.000001 -0.000001 -0.000001 0.032823 -0.025104 0.012281 -0.000000 0.000000 0.000002 0.000001 0.000002 -0.000002 -0.000001 -0.000005 0.000003 -0.000003 0.000001 0.000003 0.039230 -0.011402 0.008390 0.000002 -0.000001 0.000001 0.000004 0.000000 0.000001 0.000000 0.000004 0.000005 0.000003 0.000000 0.000004 0.043418 0.002450 0.002889 0.000000 -0.000003 -0.000003 -0.000004 0.000003 -0.000002 -0.000002 0.000002 0.000000 -0.000003 -0.000000 0.000002 -0.016662 0.078957 0.057696 -15.386135 6.722159 -37.128092 -0.176972 -0.020537 -0.095144 -17.317011 14.452347 3.022417 2.996592 0.278634 -58.503582 0.000001 -0.000001 0.000000 -0.021773 -0.038278 0.012988 -0.000000 -0.000002 -0.000003 -0.000002 0.000003 -0.000005 -0.000001 -0.000001 -0.000004 -0.000003 0.000004 0.000003 0.009114 -0.002381 -0.024212 -0.000000 -0.000001 0.000000 -0.000001 0.000000 -0.000001 0.000001 0.000001 -0.000003 -0.032828 -0.025095 0.012286 -0.000001 -0.000000 -0.000005 0.000001 0.000003 -0.000001 0.000002 -0.000006 0.000001 -0.000003 0.000003 -0.000003 -0.039192 -0.011488 0.008390 -0.000001 0.000000 -0.000000 0.000001 0.000003 -0.000003 -0.000000 -0.000001 0.000002 -0.000003 -0.000000 -0.000003 -0.043421 0.002443 0.002845 -0.000001 0.000000 -0.000001 -0.000001 0.000005 -0.000001 0.000001 -0.000005 0.000000 -0.000001 0.000000 0.000002 0.000000 0.000000 -0.000000 -1.831451 -0.050017 -0.398226 44.170184 0.074408 -1.130363 13.203573 -0.279019 2.818192 -0.000003 0.000000 0.000000 0.000000 0.000000 0.000000 0.000000 0.000000 -0.000000 -0.038000 -0.085200 0.016200 0.000002 0.000000 0.000000 0.000000 0.000000 -0.000000 -1.793784 -0.049889 0.835993 28.302393 0.350721 6.217263 35.135405 0.558829 -5.646732 0.000002 0.000000 -0.000001 -0.000002 -0.000000 -0.000000 0.000007 -0.000000 0.000000 0.038000 -0.085200 0.016200 -0.000002 0.000000 -0.000000 
-0.005508 0.219392 0.004156 -6.498505 5.852726 89.017896 -0.000000 0.000001 -0.000000 -0.000000 -0.000000 -0.000000 -0.000001 0.000000 -0.000000 -0.000000 0.000001 -0.000000 0.000924 0.155147 0.009274 -16.199861 0.048949 -14.806718 0.019937 0.078966 0.057518 -12.835110 6.988574 52.168930 0.177025 -0.020465 -0.095062 -19.115802 -19.009350 -0.469564 -0.218628 10.328602 53.886603 -0.000002 -0.000001 -0.000005 0.021770 -0.038291 0.012954 -0.000001 -0.000000 -0.000002 0.000000 -0.000000 -0.000004 0.000000 -0.000000 0.000008 0.000002 0.000002 0.000002 -0.009090 -0.002348 -0.024223 0.000002 0.000000 0.000000 0.000002 -0.000001 -0.000001 0.000002 -0.000001 0.000001 0.032823 -0.025104 0.012281 0.000000 0.000000 -0.000001 -0.000000 0.000000 -0.000007 -0.000003 -0.000002 0.000001 -0.000001 -0.000001 -0.000003 0.039230 -0.011402 0.008390 -0.000002 0.000002 0.000004 0.000002 -0.000002 0.000003 0.000000 0.000003 -0.000001 0.000002 -0.000004 0.000003 0.043417 0.002450 0.002889 -0.000001 -0.000002 -0.000003 -0.000001 0.000001 -0.000000 -0.000003 0.000001 0.000001 0.000001 0.000002 -0.000001 -0.016662 0.078956 0.057696 -16.977193 6.916546 -36.247527 -0.176972 -0.020537 -0.095144 -19.514161 11.639318 8.515202 9.093584 4.589699 -73.071167 0.000002 0.000001 0.000002 -0.021773 -0.038278 0.012988 -0.000000 -0.000000 -0.000003 0.000000 0.000004 -0.000003 0.000002 -0.000002 -0.000005 -0.000000 0.000003 0.000002 0.009113 -0.002381 -0.024212 0.000001 0.000000 -0.000001 0.000001 -0.000003 -0.000001 0.000003 -0.000001 -0.000003 -0.032828 -0.025095 0.012286 0.000000 -0.000001 -0.000003 0.000004 0.000001 -0.000003 0.000003 -0.000001 -0.000002 -0.000003 -0.000000 -0.000002 -0.039192 -0.011488 0.008390 0.000001 -0.000003 0.000001 0.000000 0.000002 -0.000003 0.000001 0.000002 -0.000000 -0.000003 0.000003 -0.000003 -0.043421 0.002443 0.002845 -0.000001 -0.000000 0.000000 -0.000004 0.000003 -0.000001 -0.000004 -0.000003 0.000002 -0.000002 -0.000002 0.000004 0.000000 0.000000 -0.000000 -1.820310 -0.171134 1.041111 46.894484 0.183646 0.190622 7.043497 -0.435355 4.398848 -0.000002 -0.000000 -0.000000 0.000001 0.000000 0.000000 -0.000005 0.000000 0.000000 -0.038000 -0.085200 0.016200 -0.000003 -0.000000 -0.000000 0.000000 0.000000 -0.000000 -1.786797 -0.170173 2.275406 33.647110 0.337669 6.379814 28.249374 0.260007 -2.623594 0.000000 -0.000000 -0.000000 0.000003 0.000001 -0.000000 0.000007 0.000000 -0.000000 0.038000 -0.085200 0.016200 -0.000001 0.000001 -0.000000 
